<svg width="292" height="2080" viewBox="0 0 292 2080" fill="none" xmlns="http://www.w3.org/2000/svg">
<path fill-rule="evenodd" clip-rule="evenodd" d="M88.5874 900.145C100.043 915.941 115.109 924.013 133.719 924.426C150.636 924.81 166.44 917.861 181.169 903.715C195.899 889.556 203.583 870.606 204.316 846.759C204.891 828.043 203.392 810.108 199.778 792.91C196.163 775.726 191.372 757.624 185.403 738.576C168.957 766.933 152.3 793.713 135.393 818.904C118.459 844.082 102.853 871.18 88.5874 900.145ZM85.7937 1178.09C99.4737 1207.34 114.532 1234.73 130.957 1260.25C147.354 1285.78 163.469 1312.89 179.342 1341.57C185.692 1322.65 190.847 1304.64 194.806 1287.53C198.752 1270.41 200.625 1252.51 200.426 1233.78C200.186 1209.94 192.884 1190.83 178.428 1176.39C163.986 1161.94 148.326 1154.68 131.404 1154.72C112.79 1154.76 97.5773 1162.53 85.7937 1178.09ZM168.241 1445.74C164.606 1463.83 163.153 1482.3 163.884 1501.11C164.817 1525.05 168.665 1545.45 175.363 1562.27C182.048 1579.09 192.194 1587.14 205.708 1586.49C232.749 1585.17 245.452 1568.41 244.069 1536.21C243.117 1514.16 236.709 1491.08 224.832 1466.83C212.968 1442.58 198.229 1417.93 180.614 1392.79C176.014 1410 171.876 1427.65 168.241 1445.74ZM233.402 614.253C245.763 590.256 252.634 567.297 254.029 545.27C256.059 513.115 243.696 496.11 216.686 494.252C203.189 493.316 192.883 501.16 185.861 517.85C178.827 534.527 174.569 554.845 173.155 578.765C172.046 597.555 173.127 616.047 176.398 634.214C179.669 652.368 183.451 670.1 187.704 687.397C205.821 662.604 221.053 638.25 233.402 614.253ZM238.012 21.6023C252.02 32.7303 263.176 46.5097 271.505 62.9142C279.834 79.3054 285.496 97.0434 288.504 116.181C291.511 135.319 292.17 153.3 290.414 170.19C284.463 227.586 268.645 278.443 242.674 323.211C216.716 367.966 189.045 412.05 159.62 455.516C130.195 498.983 103.085 544.272 78.3704 591.333C53.6427 638.407 40.0092 690.793 37.6877 747.972C36.9229 767.019 38.6372 788.797 42.8854 813.214C47.1468 837.632 55.8069 859.56 68.8263 878.918C83.2025 848.195 99.8259 818.094 118.669 788.681C137.526 759.256 156.852 732.169 176.609 707.393C170.848 684.894 165.986 663.231 161.994 642.456C157.99 621.655 156.646 600.107 157.95 577.879C159.364 553.905 165.127 529.775 175.224 505.556C185.322 481.349 201.422 470.071 223.354 471.624C240.223 472.834 251.832 482.604 258.195 500.896C264.585 519.188 267.386 535.083 266.53 548.609C264.72 577.379 257.537 606.215 244.964 635.303C232.391 664.392 217.022 692.999 198.844 721.217C204.787 740.251 209.895 760.064 214.195 780.668C218.508 801.272 220.364 820.892 219.776 839.58C218.715 873.571 210.029 899.272 193.545 916.801C177.075 934.329 157.868 942.923 135.871 942.476C112.181 941.997 92.8885 933.883 78.0073 918.013C69.0499 940.257 61.4293 962.142 55.1593 983.666C49.9382 1001.65 48.9671 1020.05 47.966 1038.72C48.5914 1057.42 49.1928 1075.82 54.0511 1093.91C59.8872 1115.56 67.0663 1137.61 75.5748 1160.02C90.7721 1144.44 110.224 1136.71 133.919 1136.71C155.907 1136.71 174.95 1145.7 191.065 1163.54C207.206 1181.4 215.361 1207.26 215.739 1241.26C215.951 1259.97 213.7 1279.55 208.974 1300.07C204.261 1320.58 198.756 1340.29 192.432 1359.2C210.039 1387.77 224.829 1416.69 236.815 1446.02C248.801 1475.35 255.403 1504.33 256.634 1533.12C257.218 1546.67 254.112 1562.49 247.342 1580.66C240.599 1598.82 228.809 1608.36 211.92 1609.22C189.961 1610.34 174.09 1598.74 164.482 1574.34C154.873 1549.92 149.61 1525.68 148.664 1501.7C147.808 1479.43 150.011 1457.91 155.273 1437.16C160.535 1416.44 166.277 1395.73 172.512 1375.06C153.221 1348.2 134.006 1320.33 114.909 1291.41C95.8257 1262.49 79.3748 1231.66 65.61 1198.91C52.204 1218.01 43.105 1239.75 38.3536 1264.07C33.6154 1288.42 31.4639 1310.13 31.8455 1329.2C33.0171 1386.43 45.5949 1439.07 69.3715 1486.62C93.1348 1534.17 119.329 1580.01 147.874 1624.05C176.42 1668.1 203.199 1712.73 228.252 1758C253.318 1803.27 268.111 1854.43 272.907 1911.95C274.324 1928.87 273.303 1946.85 269.911 1965.92C266.519 1984.98 260.502 2002.62 251.845 2018.83C243.188 2035.06 231.758 2048.6 217.528 2059.46C203.298 2070.32 186.099 2076.79 165.905 2078.82C149.06 2080.51 131.293 2077.1 112.592 2068.52C93.8906 2059.92 76.8887 2046.77 61.6266 2029C46.3644 2011.22 33.0111 1990.58 21.6069 1967.06C10.2295 1943.54 3.33669 1916.92 1.00727 1887.33C-2.13703 1847.28 3.27315 1815.78 16.9559 1793.03C30.6521 1770.25 49.388 1758.17 73.0314 1756.63C105.107 1754.53 130.466 1766.73 149.243 1792.96C168.034 1819.22 178.732 1849.3 181.455 1883.47C185.125 1929.57 172.638 1960.74 143.525 1977.19C149.497 1968.01 154.415 1956.35 158.304 1942.22C162.193 1928.08 163.572 1914.18 162.457 1900.49C160.096 1871.39 151.08 1842.4 135.424 1813.33C119.769 1784.27 101.068 1770.36 79.119 1771.83C55.4885 1773.41 38.4159 1784.55 27.993 1805.35C17.5836 1826.13 13.4896 1851.38 15.7927 1880.92C17.4098 1901.78 22.5408 1923.25 31.2002 1945.24C39.8595 1967.24 51.3931 1987.18 65.7742 2005.06C80.142 2022.92 95.5331 2037.14 111.841 2047.74C128.162 2058.32 145.599 2062.66 164.112 2060.84C187.696 2058.52 207.336 2046.66 223.164 2025.42C238.978 2004.16 245.081 1974.11 241.74 1935.07C237.228 1882.45 223.768 1834.01 201.149 1789.34C178.517 1744.69 154.054 1699.01 127.777 1652.23C101.486 1605.44 77.5549 1556 56.0498 1504C34.5713 1452 23.0242 1393.64 21.7096 1329.41C21.2204 1305.12 23.7315 1279.45 29.3226 1252.5C34.9139 1225.54 45.3018 1201.62 60.4318 1180.8C41.5924 1134.22 32.4191 1089.05 32.8147 1045.71C32.8417 1043.03 32.9212 1040.42 32.9877 1037.78C32.9958 1035.65 32.9368 1033.57 32.9584 1031.42C33.4339 988.088 43.5133 943.107 63.2852 896.917C48.59 875.808 38.6718 851.667 33.6233 824.629C28.5885 797.55 26.5805 771.848 27.558 747.564C30.1633 683.373 42.8813 625.258 65.4007 573.695C87.9466 522.146 112.866 473.207 140.092 426.945C167.305 380.71 192.681 335.522 216.206 291.33C239.718 247.124 254.15 198.973 259.718 146.453C263.843 107.48 258.346 77.316 242.962 55.7603C227.564 34.1911 208.167 21.929 184.634 19.1456C166.161 16.9465 148.641 20.9172 132.11 31.1915C115.592 41.4527 99.9186 55.3627 85.1945 72.9489C70.4571 90.5217 58.5249 110.243 49.4253 132.046C40.3255 153.862 34.7639 175.22 32.7144 196.054C29.8178 225.547 33.4172 250.864 43.4068 271.846C53.4096 292.841 70.2549 304.317 93.8489 306.368C115.777 308.281 134.741 294.778 150.977 266.033C167.213 237.275 176.797 208.477 179.756 179.425C181.133 165.758 180.033 151.826 176.442 137.629C172.838 123.419 168.156 111.665 162.369 102.366C191.146 119.389 203.005 150.79 198.408 196.826C194.999 230.927 183.698 260.802 164.384 286.676C145.083 312.523 119.484 324.186 87.4568 321.451C63.8492 319.44 45.3602 306.987 32.1378 283.946C18.902 260.905 14.1255 229.336 18.0743 189.347C20.8207 161.533 28.1896 135.499 40.1396 111.351C52.0897 87.1903 65.9127 66.3815 81.5291 48.9109C97.1454 31.4536 114.408 18.6398 133.278 10.429C152.148 2.23162 169.98 -0.829412 186.787 1.19295C206.937 3.6356 224.003 10.4476 238.012 21.6023Z" fill="#231F20"/>
</svg>
